<svg xmlns="http://www.w3.org/2000/svg" width="933.333" height="933.333" preserveAspectRatio="xMidYMid meet" version="1.0" viewBox="0 0 700 700"><metadata>Created by potrace 1.14, written by Peter Selinger 2001-2017</metadata><g fill="#000" stroke="none"><path d="M3398 6415 c-2 -2 -30 -5 -63 -9 -33 -3 -71 -8 -85 -11 -14 -3 -47 -10 -73 -15 -195 -39 -450 -165 -612 -303 -233 -200 -384 -434 -469 -728 -25 -89 -29 -110 -45 -238 -9 -70 -7 -302 3 -347 2 -12 7 -39 10 -59 60 -372 302 -741 633 -963 317 -213 709 -285 1123 -208 68 13 240 76 329 120 208 104 383 251 527 443 51 69 144 229 144 249 0 8 5 14 10 14 6 0 10 6 10 13 0 6 13 46 29 87 90 233 112 548 56 807 -126 578 -587 1021 -1174 1127 -76 14 -343 30 -353 21z" transform="translate(0.000000,700.000000) scale(0.100000,-0.100000)"/><path d="M2770 2909 c-221 -26 -394 -82 -584 -190 -50 -28 -93 -54 -96 -58 -3 -3 -23 -19 -45 -35 -263 -192 -457 -484 -540 -811 -38 -152 -45 -229 -46 -495 -1 -256 7 -305 69 -425 51 -98 154 -199 252 -246 143 -69 18 -64 1730 -63 l1555 0 72 26 c95 34 156 70 221 131 90 86 160 219 176 337 7 51 8 469 1 515 -2 17 -6 48 -9 70 -21 172 -97 384 -193 543 -190 315 -502 555 -848 652 -186 52 -191 52 -950 54 -390 1 -735 -2 -765 -5z" transform="translate(0.000000,700.000000) scale(0.100000,-0.100000)"/></g></svg>